# xmcd
#
# Track frame offsets:
#	150
#	11907
#	25670
#	38875
#	51547
#	64737
#	77455
#	91297
#	104882
#	116907
#	140825
#	152572
#	170152
#	191085
#	207517
#	222795
#	233335
#	246807
#	257567
#	268295
#
# Disc length: 3974 seconds
#
# Revision: 5
# Processed by: cddbd v1.5.1PL0 Copyright (c) Steve Scherf et al.
# Submitted via: dBpowerAMP V4.0
#
DISCID=2a0f8414
DTITLE=Various Artist - La Route du Blues
DYEAR=1995
DGENRE=Blues
TTITLE0=Good Evening Everybody - Sonny Boy Williamson
TTITLE1=Sweet Home Chicago - Robert Johnson
TTITLE2=Mannish Boy - Muddy Waters
TTITLE3=Born Under A Bad Sign - Albert King
TTITLE4=Dust My Broom - Elmore James
TTITLE5=Back Door Man - Howlin' Wolf
TTITLE6=I'm A King Bee - Slim Harpo
TTITLE7=Nobody Knows You When You're Down And Out - Bessie Smith
TTITLE8=Mr Charlie (Part II) - Lightnin' Hopkins
TTITLE9=The Thrill Is Gone - B.B.King
TTITLE10=Boogie Chillun - John Lee Hooker
TTITLE11=She's Gone - Hound Dog Taylor
TTITLE12=The Sky Is Crying - Stevie Ray Vaughan
TTITLE13=The Little Red Rooster - Willie Dixon
TTITLE14=Blues Before Sunrise - Champion Jack Dupree
TTITLE15=First Time I Met The Blues - Buddy Guy
TTITLE16=No Money Down - Chuck Berry
TTITLE17=That's All Right - Arthur 'Big Boy' Crudup
TTITLE18=Baby, What You  Want Me To Do - Jimmy Reed
TTITLE19=I Can't Quit You Baby - Little Milton
EXTD=
EXTT0=
EXTT1=
EXTT2=
EXTT3=
EXTT4=
EXTT5=
EXTT6=
EXTT7=
EXTT8=
EXTT9=
EXTT10=
EXTT11=
EXTT12=
EXTT13=
EXTT14=
EXTT15=
EXTT16=
EXTT17=
EXTT18=
EXTT19=
PLAYORDER=
